<svg fill="none" xmlns="http://www.w3.org/2000/svg" viewBox="0 0 118 22">
  <path d="M1.66 20C.629825 18.4735.137249 16.6475.26 14.81v-7.5C.130049 5.45899.615179 3.61689 1.64 2.07 2.56666.876668 4.15.283336 6.39.290003c2.24.006667 3.7567.53 4.55 1.569997.9673 1.28879 1.4393 2.88228 1.33 4.49v1.76H8.13V6.2c-.00558-.50255-.04904-1.00397-.13-1.5-.05006-.35908-.21493-.69234-.47-.95-.15746-.13503-.34027-.2373-.53773-.30083-.19746-.06354-.40562-.08705-.61227-.06917-.2968-.04429-.60003.00395-.86843.13815-.2684.1342-.48893.34784-.63157.61185-.26294.70228-.37866 1.45112-.34 2.2v9.52c-.04562.7538.08803 1.5078.39 2.2.14428.2497.35838.4519.61598.5815.2576.1297.54748.1813.83402.1485.28155.0398.5685-.0103.8199-.1432.25139-.1329.45441-.3417.5801-.5968.24189-.7036.34711-1.4469.30999-2.19v-2H12.23v1.73c.1219 1.6314-.3116 3.2561-1.23 4.61-.88 1.1-2.4 1.64-4.56 1.64-2.16 0-3.85-.6-4.78-1.83zM17.91.580002h4.74l4 20.999998h-3.94L22 16.94h-3.32l-.8 4.61h-4L17.91.580002zM21.56 14.3L20.3 5.86l-1.25 8.44h2.51zM29.72 3.74h-3.24V.580002H37.2V3.74H34v17.81h-4.29l.01-17.81z" fill="#111"/>
  <path d="M45.61.580002h8.13V2.76h-5.2v6.93h4.22v2.07h-4.22v7.69h5.25v2.1h-8.18V.580002zM56.15.580002h2l6 13.929998V.580002h2.44V21.58h-1.87l-6-14.32v14.29h-2.48L56.15.580002zM69.82.580002h8.12V2.76h-5.2v6.93H77v2.07h-4.22v7.69H78v2.1h-8.18V.580002zM80.35.579998h4.22C86.233.446176 87.8892.910749 89.24 1.89c1 .87 1.49 2.29 1.49 4.26 0 2.66666-.8633 4.2967-2.59 4.89l3 10.51H88.3l-2.75-9.84h-2.27v9.84h-2.93V.579998zm4 9.000002c.9634.09321 1.9267-.17795 2.7-.76.3143-.37192.5491-.80419.6901-1.27024.1411-.46604.1852-.95601.1299-1.43976.0201-.67844-.078-1.35521-.29-2-.086-.23775-.2188-.45584-.3905-.64135-.1718-.18551-.3791-.33467-.6095-.43865-.6492-.26634-1.3492-.38586-2.05-.35h-1.29v6.94l1.11-.04zM94.67 20c-.9558-1.6134-1.3988-3.4792-1.27-5.35v-7c-.0345-1.35084.1341-2.6992.5-4 .2888-.97795.9026-1.8281 1.74-2.41C96.651.630745 97.8213.338179 99 .4c.7625-.072512 1.532.022365 2.254.278.722.255634 1.379.66586 1.926 1.202.959 1.34404 1.413 2.984 1.28 4.63v.78h-2.75v-.65c.019-.77743-.042-1.55476-.18-2.32-.091-.49043-.362-.92912-.76-1.23-.519-.30636-1.1185-.44923-1.72-.41-.6532-.05588-1.3025.145-1.81.56-.4147.39351-.6858.91453-.77 1.48-.1267.82373-.1835 1.65669-.17 2.49V15c-.0794 1.1837.1228 2.3695.59 3.46.2714.3354.6158.6043 1.007.7861.3912.1819.8187.272 1.25.2633.4314-.0087.855-.1159 1.239-.3134.383-.1974.716-.48.974-.826.482-1.1534.691-2.4026.61-3.65v-1.48h-2.66v-2.07h5.3v10.38h-1.81l-.29-2.41c-.229.8007-.722 1.5003-1.4 1.985-.677.4848-1.4982.7262-2.33.685-.7821.069-1.5689-.0608-2.2874-.3772-.7185-.3165-1.3455-.8093-1.8226-1.4328zM110.69 14.15L106.16.580002h2.72L112.09 10.7 115.25.580002H118L113.5 14.15v7.4h-2.8l-.01-7.4z" fill="#444"/>
</svg>
