<?xml version="1.0" encoding="utf-8"?>
<!-- Generator: Adobe Illustrator 24.2.1, SVG Export Plug-In . SVG Version: 6.00 Build 0)  -->
<svg version="1.1" id="Layer_1" xmlns="http://www.w3.org/2000/svg" xmlns:xlink="http://www.w3.org/1999/xlink" x="0px" y="0px"
  viewBox="0 0 27 34" style="enable-background:new 0 0 27 34;" xml:space="preserve">
<style type="text/css">
  .st0{fill:#666666;}
</style>
<path class="st0" d="M13.6,0.5h-0.1l-13,1.4v23.9l13,7.7l13-7.7V1.9L13.6,0.5z M24.9,24.8l-11.4,6.7L2.1,24.8V15l11.3,6.7v1.2
  l-7.7-4.6v1.2l7.8,4.7v1.3l-7.8-4.6V22l7.8,4.6l7.9-4.7v-5l3.5-2.1V24.8z M24.8,13.6l-3.1,1.8l-1.5,0.9l-6.8-4v1.2l5.8,3.5h-0.1
  L19,17l-0.9,0.5l-4.8-2.8v1.2l3.8,2.2l-0.9,0.6l-2.8-1.7v1.2l1.9,1.1l-1.9,1.1L2.2,13.7L13.4,7C13.4,7,24.8,13.6,24.8,13.6z
  M24.9,12.4L13.4,5.6L2.1,12.4v-9l11.4-1.2l11.4,1.2V12.4z"/>
</svg>
