<svg width="61" height="58" viewBox="0 0 61 58" fill="none" xmlns="http://www.w3.org/2000/svg">
<path d="M49.88 22C48.1561 17.8695 45.3798 14.263 41.8279 11.5398C38.2759 8.81656 34.0723 7.07178 29.6359 6.47931C25.1995 5.88684 20.6853 6.46738 16.5432 8.16307C12.4011 9.85875 8.7757 12.6104 6.02834 16.1437C3.28097 19.677 1.50757 23.8687 0.884877 28.3009C0.262182 32.7332 0.811934 37.2512 2.47935 41.4048C4.14676 45.5583 6.8736 49.2024 10.3881 51.9738C13.9026 54.7452 18.0821 56.5471 22.51 57.2C21.93 55.11 21.34 52.8 20.82 50.35C22.3328 51.3313 23.925 52.1843 25.58 52.9C25.58 52.9 25.7 55.06 25.86 57.47C27.6482 57.5008 29.4347 57.3433 31.19 57C31.1447 56.7487 31.1447 56.4913 31.19 56.24C31.48 54.37 32.28 51 32.44 48.83C33.5933 47.7513 34.5716 46.4996 35.34 45.12L35.28 45.56C34.73 49.82 33.58 54.37 32.88 55.63C32.6534 56.0471 32.3745 56.4335 32.05 56.78C35.6698 55.9308 39.0616 54.3046 41.9903 52.014C44.9189 49.7233 47.3144 46.8232 49.0106 43.5146C50.7067 40.2059 51.663 36.568 51.8132 32.853C51.9633 29.1379 51.3037 25.4347 49.88 22ZM48.41 25.79C47.97 26.22 47.06 26.51 46.91 25.21C46.76 23.91 46.72 23 46.72 23C46.72 23 44.79 19.57 44.07 19.53C43.35 19.49 38.24 23 36.89 24.53C35.72 25.82 35.49 25.73 35.49 28C35.49 29.71 35.71 36.17 35.59 41.11L27.44 43.28C24.8783 44.0152 22.2733 44.5896 19.64 45L18.64 39.17H18.5L15.93 26C15.93 26 12.12 24.56 10.72 24.17C10.0626 23.8824 9.33672 23.7889 8.62795 23.9005C7.91917 24.0122 7.25713 24.3243 6.72 24.8C6.17201 25.2798 5.73384 25.872 5.43531 26.5364C5.13678 27.2008 4.98489 27.9217 4.99 28.65C5.20138 29.1148 5.3623 29.6009 5.47 30.1C5.52 30.58 4.27 30.53 3.47 30.53C2.67 30.53 2.55 29.09 3.18 27.4C3.6715 26.1005 4.2807 24.8486 5 23.66C5.54102 22.5982 6.23884 21.624 7.07 20.77C7.07 20.77 7.21 20.43 8.32 20.53C9.43 20.63 15.6 20.96 15.6 20.96L15.65 18.69C22.3564 17.764 29.1201 17.3162 35.89 17.35C35.89 17.96 35.89 18.57 35.89 19.18C38.4543 18.0098 41.2154 17.3314 44.03 17.18C44.1806 17.1762 44.3298 17.2098 44.4642 17.2779C44.5986 17.346 44.714 17.4463 44.8 17.57C45.14 18 47.21 20.57 47.45 20.94C48.1222 21.9007 48.7334 22.9027 49.28 23.94C49.0927 24.5968 48.7987 25.2184 48.41 25.78V25.79Z" fill="#FDC305"/>
<path d="M46.46 19.67C46.93 20.27 47.34 20.8 47.46 20.96C48.1322 21.9207 48.7434 22.9227 49.29 23.96C49.0997 24.5953 48.8094 25.1961 48.43 25.74C47.99 26.17 47.08 26.46 46.93 25.16C46.78 23.86 46.72 23 46.72 23C46.72 23 44.79 19.57 44.07 19.53C43.35 19.49 38.24 23 36.89 24.53C35.72 25.82 35.49 25.73 35.49 28C35.49 29.5 35.66 34.65 35.62 39.23C37.43 39.43 40.09 39.93 40.89 41.11C40.89 41.11 40.6 33.93 48.7 37.69C48.7 37.69 48.98 27.9 60.16 30.41C56.3594 25.9478 51.7004 22.2955 46.46 19.67Z" fill="#F06351"/>
<path d="M35.93 17.35C35.9707 11.8087 35.502 6.27548 34.53 0.82C34.53 0.82 34.38 -0.48 33.66 0.58C33.0659 1.84722 32.6615 3.195 32.46 4.58C28.1852 4.30571 23.8943 4.41951 19.64 4.92C18.82 2.17 17.42 0.92 16.75 1.25C16.08 1.58 16 4.53 16 4.53L15.67 18.69C22.383 17.7631 29.1534 17.3153 35.93 17.35Z" fill="#F06351"/>
<path d="M35.35 45.12C35.48 44.05 35.55 42.63 35.59 41.06L27.44 43.23C24.8794 43.982 22.2744 44.5732 19.64 45L20.75 50C20.75 50.11 20.75 50.22 20.82 50.33C22.3328 51.3113 23.925 52.1643 25.58 52.88C27.9987 51.7238 30.3023 50.341 32.46 48.75V48.81C33.6081 47.7366 34.583 46.4918 35.35 45.12Z" fill="#E55645"/>
<path d="M22 14.22C21.95 14.12 23 14.9 23.41 15.14C23.82 15.38 24.02 15.56 24.02 15.73C24.02 15.9 23.76 16.07 23.4 16.07C23.04 16.07 22.48 15.95 22.4 15.81C22.32 15.67 23 15.81 23.34 15.81H23.63C23.0143 15.3596 22.4656 14.8243 22 14.22Z" fill="black"/>
<path d="M29.5 14.33C29.5 14.33 28.5 15.61 28.41 15.67C28.32 15.73 28.24 16.01 28.6 15.96C29.0133 15.8983 29.4212 15.8047 29.82 15.68C29.93 15.62 29.89 15.48 29.7 15.5C29.51 15.52 29.02 15.55 28.7 15.61L29.55 14.34C29.55 14.34 29.58 14.22 29.5 14.33Z" fill="black"/>
<path d="M26.36 20.44C26.8235 20.2358 27.2067 19.8843 27.45 19.44C27.73 18.78 27.45 18.53 27.01 18.44C26.4047 18.3296 25.7799 18.4509 25.26 18.78C24.87 19.15 24.92 19.51 25.26 19.78C25.5978 20.0449 25.9673 20.2666 26.36 20.44Z" fill="black"/>
<path d="M26 21.7C25.8852 21.9268 25.7292 22.1302 25.54 22.3C25.2552 22.5291 24.9051 22.6622 24.54 22.68C23.9894 22.734 23.4389 22.5768 23 22.24C22.7984 22.1221 22.619 21.9698 22.47 21.79C22.37 21.6811 22.247 21.5957 22.11 21.54C22.11 21.54 22.86 25.65 24.68 26.31C26.5 26.97 26.84 25.55 26.89 25.17C26.9509 24.0319 26.665 22.9021 26.07 21.93C26.07 21.63 26.05 21.83 26 21.7Z" fill="#F06351"/>
<path d="M24.3 22.84C23.832 22.7727 23.3825 22.6113 22.9786 22.3656C22.5747 22.1198 22.2248 21.7947 21.95 21.41C21.9254 21.3825 21.9118 21.3469 21.9118 21.31C21.9118 21.2731 21.9254 21.2375 21.95 21.21C21.963 21.1967 21.9786 21.1861 21.9958 21.1789C22.0129 21.1717 22.0314 21.168 22.05 21.168C22.0686 21.168 22.0871 21.1717 22.1042 21.1789C22.1214 21.1861 22.137 21.1967 22.15 21.21C22.3975 21.5572 22.7114 21.8517 23.0736 22.0766C23.4358 22.3015 23.8391 22.4522 24.26 22.52C24.593 22.495 24.9153 22.3913 25.2004 22.2174C25.4855 22.0436 25.7253 21.8046 25.9 21.52L26.04 21.33L26.14 21.55C26.14 21.55 26.52 22.31 27.14 22.35C27.76 22.39 28.2 21.93 28.77 21.06C28.7912 21.0282 28.8242 21.0061 28.8617 20.9986C28.8992 20.9911 28.9382 20.9988 28.97 21.02C29.0018 21.0412 29.0239 21.0742 29.0314 21.1117C29.0389 21.1492 29.0312 21.1882 29.01 21.22C28.3433 22.2 27.7133 22.67 27.12 22.63C26.8907 22.5996 26.6711 22.5183 26.4772 22.392C26.2834 22.2656 26.1204 22.0975 26 21.9C25.8043 22.1732 25.5502 22.3994 25.2561 22.562C24.9621 22.7246 24.6354 22.8196 24.3 22.84Z" fill="black"/>
<path d="M26.26 36.3C28.3311 36.3 30.01 34.6211 30.01 32.55C30.01 30.4789 28.3311 28.8 26.26 28.8C24.1889 28.8 22.51 30.4789 22.51 32.55C22.51 34.6211 24.1889 36.3 26.26 36.3Z" fill="#FDC305"/>
<path d="M31.23 29.5L28.1 30.81L29.25 25.18L21.75 34.94L24.88 33.63L23.73 39.27L31.23 29.5ZM23.84 33.33L28 27.92L27.19 31.92L29.19 31.1L25 36.52L25.81 32.52L23.84 33.33Z" fill="#111111"/>
</svg>
