<svg xmlns="http://www.w3.org/2000/svg" xmlns:xlink="http://www.w3.org/1999/xlink">
  <symbol id="logo-html" viewBox="0 0 27 34">
    <path d="M13.6,0.5h-0.1l-13,1.4v23.9l13,7.7l13-7.7V1.9L13.6,0.5z M24.9,24.8l-11.4,6.7L2.1,24.8V15l11.3,6.7v1.2
  l-7.7-4.6v1.2l7.8,4.7v1.3l-7.8-4.6V22l7.8,4.6l7.9-4.7v-5l3.5-2.1V24.8z M24.8,13.6l-3.1,1.8l-1.5,0.9l-6.8-4v1.2l5.8,3.5h-0.1
  L19,17l-0.9,0.5l-4.8-2.8v1.2l3.8,2.2l-0.9,0.6l-2.8-1.7v1.2l1.9,1.1l-1.9,1.1L2.2,13.7L13.4,7C13.4,7,24.8,13.6,24.8,13.6z
  M24.9,12.4L13.4,5.6L2.1,12.4v-9l11.4-1.2l11.4,1.2V12.4z"/>
  </symbol>
  <symbol id="icon-vk" viewBox="0 0 22 12">
    <path d="M17.6,12c-0.3,0-0.9-0.1-1.5-0.5c-0.5-0.3-0.9-0.7-1.3-1.2c-0.3-0.3-0.9-0.9-1.1-0.9c-0.2,0.1-0.4,0.7-0.3,1.2
      c0,0.1,0,0.6-0.3,0.9c-0.3,0.3-0.8,0.4-0.9,0.4h-1.4c-0.7,0-3.2-0.2-5.4-2.3C2.5,7.1,0.2,2.2,0.1,2C0,1.6-0.1,1.2,0.2,0.9
      s0.8-0.4,1-0.4h3.1c0.1,0,0.4,0.1,0.7,0.3C5.3,1,5.4,1.3,5.5,1.4c0.7,1.5,1.5,2.8,2.6,4C8.2,5,8.3,4,8.2,3.1c0-0.4-0.1-0.8-0.2-1
      C7.9,2,7.7,1.9,7.5,1.9L6.9,1.4c0-0.5,0.5-0.9,0.9-1.1C8.3,0.1,9.1,0,10.1,0h0.5c0.9,0,1.2,0.1,1.6,0.1c1.2,0.3,1.2,1.3,1.1,2.5v1.6
      c0,0.3,0,0.8,0.1,1c0.2-0.1,0.6-0.5,1.5-1.9c0.6-0.9,1-1.9,1.1-2.1c0.1-0.3,0.4-0.7,1.2-0.7h3.4c0.7,0,1.2,0.2,1.3,0.7
      c0.2,0.5,0.1,1.3-1.7,3.5c-0.3,0.3-0.5,0.6-0.7,0.9c-0.5,0.4-0.9,1-0.9,1.1s0.5,0.5,0.9,0.9c1.1,0.9,1.9,1.7,2.2,2.3
      c0.4,0.6,0.3,1,0.2,1.3c-0.3,0.7-1.2,0.7-1.4,0.8h-2.8C17.7,12,17.6,12,17.6,12z M13.7,8.3c0.7,0,1.2,0.6,1.8,1.2
      c0.4,0.4,0.7,0.8,1.1,1c0.5,0.3,1,0.3,1,0.3h2.9c0.1,0,0.3-0.1,0.4-0.1c0,0,0-0.1-0.1-0.1c-0.3-0.5-1-1.3-2-2.1
      c-0.9-0.7-1.3-1.1-1.4-1.7c0-0.6,0.4-1.1,1.2-2.1c0.2-0.2,0.4-0.5,0.7-0.8c1.1-1.4,1.4-2,1.5-2.3h-3.9c0,0.4-0.5,1.5-1.1,2.4
      c-1.4,2.1-2,2.4-2.5,2.4c-0.1,0-0.3,0-0.4-0.1c-0.7-0.4-0.7-1.4-0.7-2.1V3.9V2.6c0.1-1.3,0-1.3-0.3-1.4c-0.3-0.1-0.5-0.1-1.4-0.1H10
      c-0.5,0-1,0-1.4,0.1l0.2,0.2c0.4,0.5,0.4,1.5,0.4,1.7c0.1,1.3,0,2.9-0.7,3.3c-0.1,0-0.2,0.1-0.4,0.1C7.5,6.5,6.8,5.8,5.6,4
      C5,2.9,4.5,1.8,4.5,1.8s0-0.1-0.1-0.1S4.2,1.6,4.2,1.6H1.3H1.2c0.4,0.9,2.5,5,4.8,7.2c2,1.9,4.3,2,4.7,2h1.4c0,0,0.2,0,0.2-0.1v-0.1
      c0-0.2,0-2,1.2-2.3C13.5,8.3,13.7,8.3,13.7,8.3z"/>
  </symbol>
  <symbol id="icon-insta" viewBox="0 0 16.1 16">
    <path d="M11.8,1C13.6,1,15,2.4,15,4.2v7.7c0,1.7-1.4,3.1-3.1,3.1H4.2C2.4,15,1,13.6,1,11.8V4.2C1,2.4,2.4,1,4.2,1H11.8M11.8,0H4.2C1.9,0,0,1.9,0,4.2v7.7C0,14.1,1.9,16,4.2,16h7.7c2.3,0,4.2-1.9,4.2-4.2V4.2C16,1.9,14.1,0,11.8,0z"/>
    <path d="M8,4.9c1.7,0,3.1,1.4,3.1,3.1S9.7,11.1,8,11.1S4.9,9.7,4.9,8S6.3,4.9,8,4.9 M8,3.9C5.7,3.9,3.9,5.7,3.9,8s1.8,4.1,4.1,4.1s4.1-1.8,4.1-4.1S10.3,3.9,8,3.9z"/>
    <circle cx="12.3" cy="3.7" r="0.9"/>
  </symbol>
  <symbol id="icon-fb" viewBox="0 0 10 19">
    <path d="M7.1,19H2v-8.8H0V5.8h1.9C1.8,3.8,2.1,2.4,3,1.4C3.8,0.5,5,0.1,6.5,0H10v4.2H7.2C7.1,4.4,7,5,7,5.8h3v4.4H7.1V19z M3.1,18h2.8V9.1h2.9V6.8H5.9V6.3c0-1.4,0-2.6,0.7-3.1l0.1-0.1h2.1V1H6.5c-1.2,0.1-2,0.4-2.6,1c-0.8,0.8-1,2.3-0.8,4.2l0.1,0.6H1.1v2.3h2V18z"/>
  </symbol>
  <symbol id="icon-mail" viewBox="0 0 17 13">
    <path d="M15.6,11.6H1.4V5.8H0V13h17V5.8h-1.4V11.6z M0,0v2.3l8.5,7.1L17,2.3V0H0z M15.6,1.6L8.5,7.5L1.4,1.6V1.4h14.2L15.6,1.6z"/>
  </symbol>
  <symbol id="icon-phone" viewBox="0 0 20 20">
    <path d="M17.9,9.4H9.4v1.2h8.5l-2.1,2.1l0.9,0.9l3.1-3.1c0.2-0.2,0.2-0.6,0-0.9l-3.1-3.1l-0.9,0.9L17.9,9.4z"/>
    <path d="M8.1,19.4v-6.2c0-0.3-0.3-0.6-0.6-0.6H4.4l0,0H3.1l0,0c0,0.7,0.6,1.2,1.2,1.2h2.5v5H3.1c-1,0.1-1.8-0.7-1.9-1.7c0-0.1,0-0.1,0-0.2V3.1c0-1,0.8-1.8,1.7-1.8c0.1,0,0.1,0,0.2,0h3.7v5H4.4c-0.7,0-1.2,0.6-1.2,1.2h4.4c0.3,0,0.6-0.3,0.6-0.6V0.6C8.1,0.3,7.8,0,7.5,0H3.1C1.5-0.1,0.1,1.2,0,2.9C0,3,0,3.1,0,3.1v13.7c-0.1,1.7,1.2,3.1,2.9,3.1c0.1,0,0.2,0,0.2,0h4.4C7.8,20,8.1,19.7,8.1,19.4z"/>
  </symbol>
  <symbol id="logo-footer">
    <g>
      <path d="M1.6,21.5c-1-1.3-1.6-3.2-1.6-5.6V7.6c0-2.5,0.5-4.4,1.5-5.7C2.6,0.6,4.3,0,6.8,0c2.4,0,4.1,0.6,5.1,1.7c1,1.1,1.5,2.8,1.5,4.9v2H8.5V6.3c0-0.9-0.1-1.6-0.3-2S7.6,3.5,6.8,3.5c-0.7,0-1.2,0.2-1.4,0.7S5.1,5.5,5.1,6.4v10.7c0,0.9,0.1,1.6,0.4,2.1c0.2,0.5,0.7,0.7,1.4,0.7c0.7,0,1.1-0.2,1.3-0.7c0.2-0.5,0.3-1.2,0.3-2.1v-2.4h4.9v2c0,2.1-0.5,3.8-1.5,5c-1,1.2-2.7,1.8-5.1,1.8C4.4,23.4,2.6,22.8,1.6,21.5z"/>
      <path d="M19.3,0.3h5.7l4.2,22.8h-4.6l-0.8-4.8h-3.3l-0.8,4.8H15L19.3,0.3z M23.4,15.3l-1.2-8.9L21,15.3H23.4z"/>
      <path d="M32.7,4.1h-3.4V0.3h11.9v3.7h-3.4v19.1h-5.1V4.1z"/>
      <path d="M50.3,0.3h8.8v2.4h-5.7v7.5h4.6v2.3h-4.6v8.4h5.7v2.3h-8.9V0.3z"/>
      <path d="M61.7,0.3h2.2l6.5,15.1V0.3h2.6v22.8h-2L64.4,7.5v15.6h-2.7V0.3z"/>
      <path d="M76,0.3h8.8v2.4h-5.7v7.5h4.6v2.3h-4.6v8.4h5.7v2.3H76V0.3z"/>
      <path d="M87.4,0.3H92c2.3,0,4,0.5,5.1,1.4c1.1,0.9,1.6,2.5,1.6,4.6c0,2.9-0.9,4.7-2.8,5.3l3.2,11.4H96l-3-10.7h-2.5
      v10.7h-3.2V0.3z M91.8,10.1c1.4,0,2.3-0.3,2.9-0.8c0.6-0.5,0.9-1.5,0.9-3c0-0.9-0.1-1.7-0.3-2.2c-0.2-0.5-0.6-0.9-1.1-1.2
      c-0.5-0.3-1.3-0.4-2.2-0.4h-1.4v7.5H91.8z"/>
      <path d="M102.7,21.4c-0.9-1.3-1.4-3.2-1.4-5.8V8c0-1.8,0.2-3.2,0.5-4.3c0.4-1.1,1-2,1.9-2.6s2.1-0.9,3.7-0.9
      c2.1,0,3.6,0.5,4.5,1.6s1.4,2.7,1.4,5v0.8h-3V6.9c0-1.1-0.1-1.9-0.2-2.5c-0.1-0.6-0.4-1-0.8-1.3c-0.4-0.3-1-0.5-1.9-0.5
      c-0.9,0-1.5,0.2-2,0.6s-0.7,0.9-0.8,1.6s-0.2,1.6-0.2,2.7V16c0,1.7,0.2,3,0.6,3.8c0.4,0.8,1.2,1.1,2.4,1.1c1.2,0,2-0.4,2.4-1.2
      c0.4-0.8,0.7-2.1,0.7-4v-1.6h-2.9v-2.3h5.8v11.3h-2l-0.3-2.6c-0.7,1.9-2.1,2.9-4.1,2.9C105.1,23.4,103.6,22.7,102.7,21.4z"/>
      <path d="M119.8,15.1l-4.9-14.7h3l3.5,11l3.4-11h3l-4.9,14.7v8h-3V15.1z"/>
    </g>
  </symbol>
</svg>
